<svg width="71" height="71" viewBox="0 0 71 71" fill="none" xmlns="http://www.w3.org/2000/svg">
<circle cx="32.5418" cy="32.8373" r="19.7002" transform="rotate(-3.01267 32.5418 32.8373)" stroke="#0D0D0D" stroke-width="5.62862"/>
<path d="M59.1665 56.8L50.2915 48.8125" stroke="#0D0D0D" stroke-width="5.62862" stroke-linecap="round"/>
<circle cx="32.3204" cy="32.7064" r="14.8732" fill="white" stroke="black" stroke-width="0.929576"/>
<path d="M46.7284 32.7065C46.7284 30.8144 46.3557 28.9407 45.6316 27.1926C44.9075 25.4445 43.8462 23.8562 42.5083 22.5182C41.1703 21.1803 39.582 20.119 37.8339 19.3949C36.0858 18.6708 34.2122 18.2981 32.32 18.2981C30.4279 18.2981 28.5543 18.6708 26.8062 19.3949C25.0581 20.119 23.4697 21.1803 22.1317 22.5182C20.7938 23.8562 19.7325 25.4445 19.0084 27.1926C18.2843 28.9407 17.9116 30.8144 17.9116 32.7065L32.32 32.7065H46.7284Z" fill="#EF4444"/>
<rect x="17.6333" y="32.1484" width="29.4675" height="2.97464" fill="black"/>
<circle cx="32.3203" cy="33.6357" r="3.85773" fill="white" stroke="black" stroke-width="0.650703"/>
<circle cx="32.3201" cy="33.6358" r="2.46337" stroke="black" stroke-width="0.278873"/>
</svg>
