<svg width="684" height="216" viewBox="0 0 684 216" fill="none" xmlns="http://www.w3.org/2000/svg">
<mask id="path-1-outside-1_825_438" maskUnits="userSpaceOnUse" x="45" y="5" width="604" height="193" fill="black">
<rect fill="white" x="45" y="5" width="604" height="193"/>
<path d="M62.2782 42.3C67.7456 40.4926 72.8742 38.8207 77.6639 37.2844C82.4987 35.7481 87.5821 34.3021 92.914 32.9465C98.2459 31.5458 103.352 30.4387 108.232 29.6254C111.982 28.9928 115.823 28.6765 119.754 28.6765C126.306 28.6765 130.599 28.8572 132.632 29.2187C135.705 29.8061 138.597 30.755 141.308 32.0654C144.064 33.3758 146.504 35.1381 148.628 37.3521C150.797 39.5211 152.559 42.0966 153.915 45.0789C154.457 46.2989 154.728 47.5867 154.728 48.9423C154.728 54.0031 151.949 60.2387 146.391 67.6491C140.879 75.0596 135.321 81.5211 129.718 87.0338C124.16 92.5464 120.003 96.5002 117.247 98.895L129.447 141.663L111.689 154.473L80.5784 65.6158C80.488 65.6158 80.0587 66.045 79.2906 66.9036C78.5224 67.7621 77.5057 68.8917 76.2405 70.2925C75.0205 71.6481 74.2524 72.484 73.9361 72.8003C73.8005 72.8003 73.3486 71.8288 72.5805 69.8858C71.8575 67.9428 70.8634 65.2543 69.5982 61.8202C68.3782 58.3409 67.0001 54.5001 65.4638 50.2978C63.8823 46.0504 62.8204 43.3844 62.2782 42.3ZM106.131 61.1424L111.689 81.1371C114.49 78.2904 117.969 74.4044 122.127 69.4792C126.284 64.5539 128.362 60.9842 128.362 58.7702C128.362 57.9116 128.001 57.4146 127.278 57.279C125.244 56.8272 123.234 56.6012 121.245 56.6012C115.281 56.6012 110.243 58.115 106.131 61.1424ZM205.63 76.5959C208.838 78.3129 211.436 80.64 213.424 83.5771C215.458 86.469 216.926 89.7449 217.83 93.405C218.779 97.0198 219.253 100.793 219.253 104.724C219.253 107.977 218.982 111.118 218.44 114.145C217.943 117.173 217.242 119.952 216.339 122.482C215.435 125.012 214.373 127.159 213.153 128.921C210.306 133.168 207.256 136.828 204.003 139.901C200.75 142.974 197.428 145.459 194.04 147.357C190.651 149.209 187.284 150.565 183.941 151.423C180.642 152.327 177.366 152.779 174.113 152.779C170.272 152.779 166.612 152.169 163.133 150.949C159.698 149.774 156.761 148.215 154.321 146.272C150.3 142.928 147.159 138.432 144.9 132.784C142.641 127.091 141.511 121.081 141.511 114.755C141.511 103.865 144.652 95.0768 150.932 88.3894C156.31 82.6508 161.867 78.3355 167.606 75.4437C173.345 72.5066 179.219 71.0381 185.228 71.0381C188.753 71.0381 192.142 71.4899 195.395 72.3936C198.648 73.2522 202.06 74.6529 205.63 76.5959ZM201.631 87.9827C200.863 91.4168 199.191 94.4442 196.615 97.065C194.085 99.6858 191.6 100.996 189.159 100.996C187.939 100.996 186.855 100.68 185.906 100.047C184.551 98.9628 183.873 97.065 183.873 94.3539C183.873 92.2753 184.551 90.2194 185.906 88.186C187.307 86.1527 189.498 84.5486 192.481 83.3737C189.498 83.3737 186.606 83.9386 183.805 85.0682C181.049 86.1978 178.676 87.6664 176.688 89.4738C174.7 91.236 173.096 93.2468 171.876 95.5061C170.701 97.7202 170.114 99.9569 170.114 102.216C170.114 106.418 172.057 109.762 175.943 112.247C179.558 114.552 182.992 115.704 186.245 115.704C189.453 115.704 192.3 114.642 194.785 112.518C197.27 110.35 199.168 107.593 200.478 104.25C201.789 100.861 202.444 97.5169 202.444 94.2183C202.444 91.959 202.173 89.8805 201.631 87.9827ZM208.002 36.7421L242.433 22.3053L247.449 100.589L275.78 85.0682L305.196 89.4738L266.834 118.89L302.96 146.137L304.586 173.316L251.312 135.021L253.007 168.3L220.744 168.91L214.644 51.179L204.681 53.4157L208.002 36.7421ZM352.37 112.518L368.705 132.242C367.394 136.038 364.277 139.517 359.351 142.68C354.471 145.843 348.642 148.328 341.864 150.136C335.132 151.988 328.399 152.914 321.666 152.914C315.702 152.914 310.37 152.124 305.671 150.542C301.017 148.961 297.424 146.566 294.894 143.358C290.511 137.845 288.319 130.796 288.319 122.211C288.319 115.433 289.539 108.768 291.979 102.216C294.465 95.6191 297.085 91.0101 299.842 88.3894C303.14 85.2715 306.71 82.6734 310.551 80.5948C314.437 78.5163 318.458 76.9574 322.615 75.9181C326.772 74.8788 331.042 74.3592 335.425 74.3592C341.164 74.3592 346.609 75.2855 351.76 77.1381C356.956 78.9455 361.498 81.5889 365.384 85.0682L328.173 129.463C331.472 129.463 334.59 128.785 337.527 127.43C340.509 126.029 343.243 124.063 345.728 121.533C348.213 118.957 350.427 115.953 352.37 112.518ZM333.595 96.7261C331.381 95.5965 329.122 95.0316 326.818 95.0316C324.378 95.0316 322.005 95.5287 319.701 96.5228C317.442 97.5169 315.837 98.6917 314.889 100.047C312.087 103.662 310.686 107.638 310.686 111.976C310.686 113.558 310.844 115.071 311.161 116.517C311.477 117.963 312.019 119.952 312.787 122.482L333.595 96.7261ZM298.757 47.8578L334.883 27.8632L350.405 51.7212L306.552 60.0579L298.757 47.8578ZM418.725 57.279C414.975 55.9686 411.993 55.3134 409.778 55.3134C406.706 55.3134 403.746 56.3301 400.9 58.3635L404.288 120.042C411.925 116.743 417.008 113.49 419.539 110.282C422.114 107.028 423.673 104.34 424.215 102.216C424.667 101.222 425.119 98.7595 425.571 94.8283C426.068 90.8972 426.316 86.5141 426.316 81.6793C426.316 75.3533 425.729 69.9536 424.554 65.4802C423.425 60.9617 421.482 58.2279 418.725 57.279ZM445.362 45.0789C447.486 49.3263 449.248 53.732 450.649 58.2957C452.095 62.8143 453.134 67.3328 453.767 71.8514C454.445 76.37 454.783 80.8208 454.783 85.2038C454.783 93.0661 453.722 100.612 451.598 107.842C449.519 115.071 446.514 121.556 442.583 127.294C438.652 132.988 433.885 137.619 428.282 141.189C422.724 144.758 416.556 146.95 409.778 147.763L381.515 152.779L372.026 65.6158C371.71 65.6158 370.603 66.8132 368.705 69.208C366.807 71.6029 365.7 72.8003 365.384 72.8003C364.389 72.1225 363.508 70.2021 362.74 67.0391C362.017 63.8761 360.955 58.9509 359.555 52.2634C358.199 45.5759 357.182 41.5092 356.505 40.0633C366.942 36.6744 376.77 33.9406 385.988 31.8621C395.206 29.7384 403.791 28.6765 411.744 28.6765C428.824 28.6765 440.03 34.144 445.362 45.0789ZM512.056 112.518L528.391 132.242C527.08 136.038 523.963 139.517 519.037 142.68C514.157 145.843 508.328 148.328 501.551 150.136C494.818 151.988 488.085 152.914 481.353 152.914C475.388 152.914 470.056 152.124 465.357 150.542C460.703 148.961 457.11 146.566 454.58 143.358C450.197 137.845 448.006 130.796 448.006 122.211C448.006 115.433 449.226 108.768 451.666 102.216C454.151 95.6191 456.772 91.0101 459.528 88.3894C462.826 85.2715 466.396 82.6734 470.237 80.5948C474.123 78.5163 478.144 76.9574 482.301 75.9181C486.459 74.8788 490.729 74.3592 495.112 74.3592C500.85 74.3592 506.295 75.2855 511.446 77.1381C516.643 78.9455 521.184 81.5889 525.07 85.0682L487.859 129.463C491.158 129.463 494.276 128.785 497.213 127.43C500.195 126.029 502.929 124.063 505.414 121.533C507.899 118.957 510.113 115.953 512.056 112.518ZM493.282 96.7261C491.067 95.5965 488.808 95.0316 486.504 95.0316C484.064 95.0316 481.691 95.5287 479.387 96.5228C477.128 97.5169 475.524 98.6917 474.575 100.047C471.773 103.662 470.372 107.638 470.372 111.976C470.372 113.558 470.531 115.071 470.847 116.517C471.163 117.963 471.705 119.952 472.474 122.482L493.282 96.7261ZM567.567 137.122L551.164 158.337L516.191 159.421L550.08 114.62L511.785 65.0736L548.928 66.7002L567.567 91.3038L586.138 66.7002L623.348 65.0736L585.054 114.62L618.943 159.421L583.901 158.337L567.567 137.122Z"/>
</mask>
<path d="M62.2782 42.3C67.7456 40.4926 72.8742 38.8207 77.6639 37.2844C82.4987 35.7481 87.5821 34.3021 92.914 32.9465C98.2459 31.5458 103.352 30.4387 108.232 29.6254C111.982 28.9928 115.823 28.6765 119.754 28.6765C126.306 28.6765 130.599 28.8572 132.632 29.2187C135.705 29.8061 138.597 30.755 141.308 32.0654C144.064 33.3758 146.504 35.1381 148.628 37.3521C150.797 39.5211 152.559 42.0966 153.915 45.0789C154.457 46.2989 154.728 47.5867 154.728 48.9423C154.728 54.0031 151.949 60.2387 146.391 67.6491C140.879 75.0596 135.321 81.5211 129.718 87.0338C124.16 92.5464 120.003 96.5002 117.247 98.895L129.447 141.663L111.689 154.473L80.5784 65.6158C80.488 65.6158 80.0587 66.045 79.2906 66.9036C78.5224 67.7621 77.5057 68.8917 76.2405 70.2925C75.0205 71.6481 74.2524 72.484 73.9361 72.8003C73.8005 72.8003 73.3486 71.8288 72.5805 69.8858C71.8575 67.9428 70.8634 65.2543 69.5982 61.8202C68.3782 58.3409 67.0001 54.5001 65.4638 50.2978C63.8823 46.0504 62.8204 43.3844 62.2782 42.3ZM106.131 61.1424L111.689 81.1371C114.49 78.2904 117.969 74.4044 122.127 69.4792C126.284 64.5539 128.362 60.9842 128.362 58.7702C128.362 57.9116 128.001 57.4146 127.278 57.279C125.244 56.8272 123.234 56.6012 121.245 56.6012C115.281 56.6012 110.243 58.115 106.131 61.1424ZM205.63 76.5959C208.838 78.3129 211.436 80.64 213.424 83.5771C215.458 86.469 216.926 89.7449 217.83 93.405C218.779 97.0198 219.253 100.793 219.253 104.724C219.253 107.977 218.982 111.118 218.44 114.145C217.943 117.173 217.242 119.952 216.339 122.482C215.435 125.012 214.373 127.159 213.153 128.921C210.306 133.168 207.256 136.828 204.003 139.901C200.75 142.974 197.428 145.459 194.04 147.357C190.651 149.209 187.284 150.565 183.941 151.423C180.642 152.327 177.366 152.779 174.113 152.779C170.272 152.779 166.612 152.169 163.133 150.949C159.698 149.774 156.761 148.215 154.321 146.272C150.3 142.928 147.159 138.432 144.9 132.784C142.641 127.091 141.511 121.081 141.511 114.755C141.511 103.865 144.652 95.0768 150.932 88.3894C156.31 82.6508 161.867 78.3355 167.606 75.4437C173.345 72.5066 179.219 71.0381 185.228 71.0381C188.753 71.0381 192.142 71.4899 195.395 72.3936C198.648 73.2522 202.06 74.6529 205.63 76.5959ZM201.631 87.9827C200.863 91.4168 199.191 94.4442 196.615 97.065C194.085 99.6858 191.6 100.996 189.159 100.996C187.939 100.996 186.855 100.68 185.906 100.047C184.551 98.9628 183.873 97.065 183.873 94.3539C183.873 92.2753 184.551 90.2194 185.906 88.186C187.307 86.1527 189.498 84.5486 192.481 83.3737C189.498 83.3737 186.606 83.9386 183.805 85.0682C181.049 86.1978 178.676 87.6664 176.688 89.4738C174.7 91.236 173.096 93.2468 171.876 95.5061C170.701 97.7202 170.114 99.9569 170.114 102.216C170.114 106.418 172.057 109.762 175.943 112.247C179.558 114.552 182.992 115.704 186.245 115.704C189.453 115.704 192.3 114.642 194.785 112.518C197.27 110.35 199.168 107.593 200.478 104.25C201.789 100.861 202.444 97.5169 202.444 94.2183C202.444 91.959 202.173 89.8805 201.631 87.9827ZM208.002 36.7421L242.433 22.3053L247.449 100.589L275.78 85.0682L305.196 89.4738L266.834 118.89L302.96 146.137L304.586 173.316L251.312 135.021L253.007 168.3L220.744 168.91L214.644 51.179L204.681 53.4157L208.002 36.7421ZM352.37 112.518L368.705 132.242C367.394 136.038 364.277 139.517 359.351 142.68C354.471 145.843 348.642 148.328 341.864 150.136C335.132 151.988 328.399 152.914 321.666 152.914C315.702 152.914 310.37 152.124 305.671 150.542C301.017 148.961 297.424 146.566 294.894 143.358C290.511 137.845 288.319 130.796 288.319 122.211C288.319 115.433 289.539 108.768 291.979 102.216C294.465 95.6191 297.085 91.0101 299.842 88.3894C303.14 85.2715 306.71 82.6734 310.551 80.5948C314.437 78.5163 318.458 76.9574 322.615 75.9181C326.772 74.8788 331.042 74.3592 335.425 74.3592C341.164 74.3592 346.609 75.2855 351.76 77.1381C356.956 78.9455 361.498 81.5889 365.384 85.0682L328.173 129.463C331.472 129.463 334.59 128.785 337.527 127.43C340.509 126.029 343.243 124.063 345.728 121.533C348.213 118.957 350.427 115.953 352.37 112.518ZM333.595 96.7261C331.381 95.5965 329.122 95.0316 326.818 95.0316C324.378 95.0316 322.005 95.5287 319.701 96.5228C317.442 97.5169 315.837 98.6917 314.889 100.047C312.087 103.662 310.686 107.638 310.686 111.976C310.686 113.558 310.844 115.071 311.161 116.517C311.477 117.963 312.019 119.952 312.787 122.482L333.595 96.7261ZM298.757 47.8578L334.883 27.8632L350.405 51.7212L306.552 60.0579L298.757 47.8578ZM418.725 57.279C414.975 55.9686 411.993 55.3134 409.778 55.3134C406.706 55.3134 403.746 56.3301 400.9 58.3635L404.288 120.042C411.925 116.743 417.008 113.49 419.539 110.282C422.114 107.028 423.673 104.34 424.215 102.216C424.667 101.222 425.119 98.7595 425.571 94.8283C426.068 90.8972 426.316 86.5141 426.316 81.6793C426.316 75.3533 425.729 69.9536 424.554 65.4802C423.425 60.9617 421.482 58.2279 418.725 57.279ZM445.362 45.0789C447.486 49.3263 449.248 53.732 450.649 58.2957C452.095 62.8143 453.134 67.3328 453.767 71.8514C454.445 76.37 454.783 80.8208 454.783 85.2038C454.783 93.0661 453.722 100.612 451.598 107.842C449.519 115.071 446.514 121.556 442.583 127.294C438.652 132.988 433.885 137.619 428.282 141.189C422.724 144.758 416.556 146.95 409.778 147.763L381.515 152.779L372.026 65.6158C371.71 65.6158 370.603 66.8132 368.705 69.208C366.807 71.6029 365.7 72.8003 365.384 72.8003C364.389 72.1225 363.508 70.2021 362.74 67.0391C362.017 63.8761 360.955 58.9509 359.555 52.2634C358.199 45.5759 357.182 41.5092 356.505 40.0633C366.942 36.6744 376.77 33.9406 385.988 31.8621C395.206 29.7384 403.791 28.6765 411.744 28.6765C428.824 28.6765 440.03 34.144 445.362 45.0789ZM512.056 112.518L528.391 132.242C527.08 136.038 523.963 139.517 519.037 142.68C514.157 145.843 508.328 148.328 501.551 150.136C494.818 151.988 488.085 152.914 481.353 152.914C475.388 152.914 470.056 152.124 465.357 150.542C460.703 148.961 457.11 146.566 454.58 143.358C450.197 137.845 448.006 130.796 448.006 122.211C448.006 115.433 449.226 108.768 451.666 102.216C454.151 95.6191 456.772 91.0101 459.528 88.3894C462.826 85.2715 466.396 82.6734 470.237 80.5948C474.123 78.5163 478.144 76.9574 482.301 75.9181C486.459 74.8788 490.729 74.3592 495.112 74.3592C500.85 74.3592 506.295 75.2855 511.446 77.1381C516.643 78.9455 521.184 81.5889 525.07 85.0682L487.859 129.463C491.158 129.463 494.276 128.785 497.213 127.43C500.195 126.029 502.929 124.063 505.414 121.533C507.899 118.957 510.113 115.953 512.056 112.518ZM493.282 96.7261C491.067 95.5965 488.808 95.0316 486.504 95.0316C484.064 95.0316 481.691 95.5287 479.387 96.5228C477.128 97.5169 475.524 98.6917 474.575 100.047C471.773 103.662 470.372 107.638 470.372 111.976C470.372 113.558 470.531 115.071 470.847 116.517C471.163 117.963 471.705 119.952 472.474 122.482L493.282 96.7261ZM567.567 137.122L551.164 158.337L516.191 159.421L550.08 114.62L511.785 65.0736L548.928 66.7002L567.567 91.3038L586.138 66.7002L623.348 65.0736L585.054 114.62L618.943 159.421L583.901 158.337L567.567 137.122Z" fill="#FFC328"/>
<path d="M62.2782 42.3L58.6037 31.1847L45.7555 35.432L51.8072 47.5355L62.2782 42.3ZM77.6639 37.2844L74.1186 26.1272L74.1034 26.132L74.0883 26.1369L77.6639 37.2844ZM92.914 32.9465L95.7986 44.2925L95.8437 44.281L95.8886 44.2692L92.914 32.9465ZM108.232 29.6254L110.157 41.173L110.168 41.1711L110.179 41.1692L108.232 29.6254ZM132.632 29.2187L134.831 17.7201L134.756 17.7058L134.681 17.6926L132.632 29.2187ZM141.308 32.0654L136.213 42.6057L136.247 42.6221L136.281 42.6383L141.308 32.0654ZM148.628 37.3521L140.179 45.456L140.264 45.544L140.35 45.6302L148.628 37.3521ZM153.915 45.0789L164.613 40.3243L164.593 40.2793L164.572 40.2345L153.915 45.0789ZM146.391 67.6491L137.026 60.625L137.012 60.6433L136.998 60.6617L146.391 67.6491ZM129.718 87.0338L121.507 78.6887L121.49 78.7054L121.474 78.722L129.718 87.0338ZM117.247 98.895L109.568 90.0578L103.945 94.9433L105.989 102.106L117.247 98.895ZM129.447 141.663L136.296 151.158L142.958 146.352L140.704 138.452L129.447 141.663ZM111.689 154.473L100.639 158.342L105.821 173.141L118.538 163.968L111.689 154.473ZM80.5784 65.6158L91.6276 61.7473L88.8833 53.9089H80.5784V65.6158ZM76.2405 70.2925L67.5528 62.4455L67.5458 62.4533L67.5389 62.461L76.2405 70.2925ZM73.9361 72.8003V84.5072H78.7852L82.2141 81.0783L73.9361 72.8003ZM72.5805 69.8858L61.6085 73.9684L61.6499 74.0796L61.6935 74.19L72.5805 69.8858ZM69.5982 61.8202L58.5508 65.694L58.5813 65.7809L58.6132 65.8673L69.5982 61.8202ZM65.4638 50.2978L76.4589 46.2781L76.447 46.2455L76.4348 46.2129L65.4638 50.2978ZM106.131 61.1424L99.1899 51.7151L92.6899 56.5008L94.8516 64.2777L106.131 61.1424ZM111.689 81.1371L100.409 84.2723L105.832 103.779L120.033 89.3486L111.689 81.1371ZM127.278 57.279L124.738 68.7071L124.929 68.7495L125.12 68.7854L127.278 57.279ZM65.9526 53.4153C71.3918 51.6172 76.4871 49.9562 81.2395 48.4319L74.0883 26.1369C69.2613 27.6852 64.0995 29.3679 58.6037 31.1847L65.9526 53.4153ZM81.2091 48.4415C85.8083 46.9801 90.6704 45.5963 95.7986 44.2925L90.0295 21.6006C84.4939 23.0079 79.1892 24.516 74.1186 26.1272L81.2091 48.4415ZM95.8886 44.2692C100.913 42.9494 105.667 41.9213 110.157 41.173L106.307 18.0778C101.037 18.9562 95.5792 20.1422 89.9394 21.6239L95.8886 44.2692ZM110.179 41.1692C113.265 40.6487 116.454 40.3834 119.754 40.3834V16.9696C115.193 16.9696 110.7 17.3369 106.285 18.0816L110.179 41.1692ZM119.754 40.3834C122.941 40.3834 125.474 40.4277 127.395 40.5086C128.354 40.549 129.109 40.5963 129.684 40.6456C129.969 40.67 130.188 40.6931 130.349 40.7127C130.515 40.7329 130.586 40.7455 130.583 40.7449L134.681 17.6926C131.448 17.1177 126.087 16.9696 119.754 16.9696V40.3834ZM130.434 40.7174C132.543 41.1205 134.457 41.7567 136.213 42.6057L146.402 21.5251C142.737 19.7533 138.867 18.4918 134.831 17.7201L130.434 40.7174ZM136.281 42.6383C137.75 43.3365 139.032 44.2599 140.179 45.456L157.077 29.2483C153.976 26.0162 150.378 23.4151 146.334 21.4925L136.281 42.6383ZM140.35 45.6302C141.46 46.7407 142.443 48.1314 143.257 49.9232L164.572 40.2345C162.676 36.0619 160.133 32.3015 156.906 29.0741L140.35 45.6302ZM143.217 49.8335C143.158 49.7023 143.105 49.5447 143.069 49.3715C143.033 49.1988 143.021 49.0506 143.021 48.9423H166.435C166.435 45.9746 165.83 43.0646 164.613 40.3243L143.217 49.8335ZM143.021 48.9423C143.021 50.103 142.165 53.7724 137.026 60.625L155.757 74.6733C161.733 66.705 166.435 57.9031 166.435 48.9423H143.021ZM136.998 60.6617C131.784 67.671 126.615 73.663 121.507 78.6887L137.928 95.3788C144.026 89.3793 149.973 82.4481 155.784 74.6366L136.998 60.6617ZM121.474 78.722C115.941 84.2094 112.014 87.9325 109.568 90.0578L124.925 107.732C127.991 105.068 132.379 100.883 137.962 95.3455L121.474 78.722ZM105.989 102.106L118.189 144.875L140.704 138.452L128.504 95.6836L105.989 102.106ZM122.598 132.169L104.84 144.979L118.538 163.968L136.296 151.158L122.598 132.169ZM122.738 150.605L91.6276 61.7473L69.5291 69.4843L100.639 158.342L122.738 150.605ZM80.5784 53.9089C78.4494 53.9089 76.8515 54.4916 76.1698 54.7672C75.3658 55.0923 74.758 55.4419 74.411 55.6546C73.7208 56.0776 73.2156 56.4853 72.9911 56.6707C72.5001 57.0763 72.1083 57.462 71.9106 57.6597C71.4626 58.1077 70.9912 58.6224 70.5661 59.0975L88.015 74.7097C88.3581 74.3263 88.4854 74.197 88.4667 74.2158C88.4518 74.2306 88.4028 74.2793 88.3265 74.3506C88.2583 74.4144 88.1103 74.5505 87.9029 74.7218C87.7434 74.8536 87.2925 75.221 86.6462 75.6172C86.321 75.8165 85.7325 76.1561 84.9451 76.4744C84.2799 76.7433 82.696 77.3227 80.5784 77.3227V53.9089ZM70.5661 59.0975C69.8154 59.9365 68.8124 61.051 67.5528 62.4455L84.9283 78.1395C86.1991 76.7325 87.2295 75.5877 88.015 74.7097L70.5661 59.0975ZM67.5389 62.461C66.9418 63.1243 66.4748 63.639 66.1293 64.0149C65.7387 64.44 65.6203 64.56 65.658 64.5223L82.2141 81.0783C82.7981 80.4943 83.8018 79.3911 84.9422 78.124L67.5389 62.461ZM73.9361 61.0934C77.3211 61.0934 79.6664 62.5365 80.5787 63.1692C81.6298 63.8982 82.3205 64.6379 82.6427 65.0025C83.3018 65.7483 83.6932 66.3956 83.7931 66.5608C84.0529 66.9906 84.1717 67.2663 84.1104 67.1345C84.0337 66.9697 83.8303 66.4994 83.4674 65.5817L61.6935 74.19C62.0989 75.2152 62.5054 76.2022 62.8806 77.0088C63.0452 77.3628 63.3504 78.0028 63.7571 78.6755C63.9304 78.9621 64.3854 79.7005 65.0981 80.507C65.4471 80.902 66.1622 81.6644 67.2352 82.4086C68.1694 83.0565 70.534 84.5072 73.9361 84.5072V61.0934ZM83.5525 65.8032C82.836 63.8777 81.8469 61.2028 80.5833 57.773L58.6132 65.8673C59.88 69.3058 60.8791 72.008 61.6085 73.9684L83.5525 65.8032ZM80.6457 57.9464C79.4054 54.4094 78.0094 50.5191 76.4589 46.2781L54.4686 54.3176C55.9908 58.4811 57.3511 62.2724 58.5508 65.694L80.6457 57.9464ZM76.4348 46.2129C74.9252 42.1584 73.6326 38.8314 72.7491 37.0645L51.8072 47.5355C51.7928 47.5067 51.857 47.6358 52.0186 48.0136C52.1686 48.3644 52.3628 48.8359 52.6053 49.4447C53.0906 50.6631 53.7173 52.3004 54.4927 54.3828L76.4348 46.2129ZM94.8516 64.2777L100.409 84.2723L122.968 78.0018L117.41 58.0071L94.8516 64.2777ZM120.033 89.3486C123.13 86.2013 126.824 82.0635 131.073 77.0301L113.18 61.9282C109.115 66.7453 105.85 70.3794 103.345 72.9255L120.033 89.3486ZM131.073 77.0301C133.375 74.3022 135.406 71.5996 136.92 68.9988C138.24 66.7321 140.069 63.0627 140.069 58.7702H116.655C116.655 57.5622 116.923 56.8167 116.955 56.7256C117.002 56.5953 116.962 56.7448 116.686 57.2172C116.122 58.186 115.035 59.7309 113.18 61.9282L131.073 77.0301ZM140.069 58.7702C140.069 56.8223 139.671 53.772 137.559 50.8678C135.285 47.7406 132.12 46.276 129.435 45.7726L125.12 68.7854C123.158 68.4176 120.536 67.2693 118.623 64.6391C116.873 62.232 116.655 59.8595 116.655 58.7702H140.069ZM129.817 45.8509C126.99 45.2226 124.127 44.8943 121.245 44.8943V68.3081C122.34 68.3081 123.499 68.4318 124.738 68.7071L129.817 45.8509ZM121.245 44.8943C113.218 44.8943 105.637 46.9685 99.1899 51.7151L113.072 70.5697C114.849 69.2614 117.344 68.3081 121.245 68.3081V44.8943ZM205.63 76.5959L200.033 86.8783L200.069 86.898L200.105 86.9175L205.63 76.5959ZM213.424 83.5771L203.73 90.1396L203.788 90.2256L203.848 90.3106L213.424 83.5771ZM217.83 93.405L206.464 96.2113L206.485 96.2945L206.507 96.3773L217.83 93.405ZM218.44 114.145L206.916 112.081L206.901 112.165L206.888 112.249L218.44 114.145ZM213.153 128.921L203.528 122.257L203.477 122.33L203.428 122.403L213.153 128.921ZM194.04 147.357L199.655 157.629L199.707 157.6L199.76 157.571L194.04 147.357ZM183.941 151.423L181.029 140.084L180.938 140.108L180.847 140.133L183.941 151.423ZM163.133 150.949L167.006 139.901L166.964 139.887L166.922 139.872L163.133 150.949ZM154.321 146.272L146.837 155.274L146.932 155.353L147.029 155.43L154.321 146.272ZM144.9 132.784L134.019 137.102L134.025 137.117L134.031 137.132L144.9 132.784ZM150.932 88.3894L159.466 96.4039L159.475 96.3939L150.932 88.3894ZM167.606 75.4437L172.874 85.8981L172.907 85.8816L172.94 85.8649L167.606 75.4437ZM195.395 72.3936L192.262 83.6734L192.335 83.6937L192.408 83.713L195.395 72.3936ZM201.631 87.9827L212.887 84.7665L190.206 85.4272L201.631 87.9827ZM196.615 97.065L188.265 88.8593L188.229 88.8962L188.193 88.9335L196.615 97.065ZM185.906 100.047L178.593 109.189L178.99 109.506L179.412 109.788L185.906 100.047ZM185.906 88.186L176.265 81.5446L176.215 81.618L176.165 81.6922L185.906 88.186ZM192.481 83.3737L196.771 94.2659L192.481 71.6668V83.3737ZM183.805 85.0682L179.427 74.2107L179.396 74.2232L179.365 74.2358L183.805 85.0682ZM176.688 89.4738L184.454 98.2346L184.509 98.1858L184.563 98.1362L176.688 89.4738ZM171.876 95.5061L161.575 89.9436L161.555 89.9812L161.535 90.0189L171.876 95.5061ZM175.943 112.247L169.635 122.11L169.642 122.114L169.65 122.119L175.943 112.247ZM194.785 112.518L202.391 121.418L202.437 121.379L202.483 121.339L194.785 112.518ZM200.478 104.25L211.378 108.521L211.388 108.496L211.398 108.472L200.478 104.25ZM200.105 86.9175C201.684 87.7625 202.834 88.8171 203.73 90.1396L223.119 77.0146C220.038 72.4629 215.991 68.8634 211.154 66.2743L200.105 86.9175ZM203.848 90.3106C204.992 91.9386 205.885 93.8654 206.464 96.2113L229.195 90.5986C227.967 85.6244 225.923 80.9994 223.001 76.8435L203.848 90.3106ZM206.507 96.3773C207.188 98.9729 207.546 101.744 207.546 104.724H230.96C230.96 99.8417 230.37 95.0667 229.153 90.4326L206.507 96.3773ZM207.546 104.724C207.546 107.325 207.33 109.773 206.916 112.081L229.963 116.209C230.634 112.463 230.96 108.63 230.96 104.724H207.546ZM206.888 112.249C206.489 114.677 205.95 116.763 205.314 118.544L227.364 126.419C228.535 123.141 229.397 119.668 229.992 116.042L206.888 112.249ZM205.314 118.544C204.672 120.341 204.038 121.52 203.528 122.257L222.778 135.585C224.708 132.797 226.198 129.683 227.364 126.419L205.314 118.544ZM203.428 122.403C201 126.026 198.501 128.995 195.965 131.39L212.041 148.412C216.012 144.662 219.613 140.311 222.878 135.439L203.428 122.403ZM195.965 131.39C193.308 133.9 190.753 135.78 188.32 137.142L199.76 157.571C204.104 155.138 208.192 152.048 212.041 148.412L195.965 131.39ZM188.424 137.084C185.789 138.525 183.327 139.494 181.029 140.084L186.852 162.762C191.242 161.635 195.512 159.894 199.655 157.629L188.424 137.084ZM180.847 140.133C178.505 140.774 176.269 141.072 174.113 141.072V164.486C178.463 164.486 182.779 163.88 187.034 162.714L180.847 140.133ZM174.113 141.072C171.535 141.072 169.189 140.667 167.006 139.901L159.259 161.996C164.034 163.671 169.008 164.486 174.113 164.486V141.072ZM166.922 139.872C164.553 139.062 162.849 138.097 161.614 137.114L147.029 155.43C150.674 158.333 154.844 160.486 159.343 162.026L166.922 139.872ZM161.806 137.27C159.51 135.362 157.424 132.573 155.77 128.436L134.031 137.132C136.895 144.292 141.089 150.495 146.837 155.274L161.806 137.27ZM155.782 128.466C154.086 124.192 153.218 119.652 153.218 114.755H129.804C129.804 122.51 131.196 129.989 134.019 137.102L155.782 128.466ZM153.218 114.755C153.218 106.251 155.596 100.524 159.466 96.4038L142.399 80.3749C133.707 89.6293 129.804 101.48 129.804 114.755H153.218ZM159.475 96.3939C164.116 91.4409 168.602 88.0509 172.874 85.8981L162.338 64.9892C155.132 68.6202 148.503 73.8606 142.39 80.3848L159.475 96.3939ZM172.94 85.8649C177.15 83.7099 181.207 82.745 185.228 82.745V59.3312C177.231 59.3312 169.539 61.3033 162.272 65.0224L172.94 85.8649ZM185.228 82.745C187.74 82.745 190.073 83.0653 192.262 83.6734L198.528 61.1138C194.211 59.9145 189.765 59.3312 185.228 59.3312V82.745ZM192.408 83.713C194.588 84.2884 197.124 85.2949 200.033 86.8783L211.226 66.3135C206.996 64.0109 202.709 62.2159 198.382 61.0742L192.408 83.713ZM190.206 85.4272C189.937 86.6309 189.38 87.7255 188.265 88.8593L204.965 105.271C209.002 101.163 211.788 96.2027 213.055 90.5382L190.206 85.4272ZM188.193 88.9335C187.549 89.6005 187.266 89.7248 187.393 89.6578C187.472 89.6165 187.672 89.5212 187.988 89.4371C188.311 89.3513 188.709 89.2893 189.159 89.2893V112.703C196.054 112.703 201.383 108.981 205.037 105.197L188.193 88.9335ZM189.159 89.2893C189.57 89.2893 190.105 89.3441 190.709 89.5203C191.32 89.6984 191.894 89.9695 192.4 90.3065L179.412 109.788C182.42 111.793 185.798 112.703 189.159 112.703V89.2893ZM193.219 90.9057C194.495 91.9264 195.134 93.1113 195.406 93.8731C195.644 94.5403 195.58 94.8012 195.58 94.3539H172.166C172.166 98.6077 173.198 104.873 178.593 109.189L193.219 90.9057ZM195.58 94.3539C195.58 94.4736 195.57 94.5887 195.553 94.6931C195.536 94.7968 195.514 94.8733 195.499 94.9184C195.469 95.01 195.48 94.9308 195.647 94.6798L176.165 81.6922C173.758 85.3035 172.166 89.5815 172.166 94.3539H195.58ZM195.547 94.8274C195.284 95.2086 195.316 94.8393 196.771 94.2659L188.19 72.4815C183.681 74.2578 179.33 77.0967 176.265 81.5446L195.547 94.8274ZM192.481 71.6668C187.978 71.6668 183.602 72.5275 179.427 74.2107L188.183 95.9257C189.611 95.3497 191.018 95.0806 192.481 95.0806V71.6668ZM179.365 74.2358C175.483 75.827 171.915 77.9916 168.813 80.8114L184.563 98.1362C185.438 97.3412 186.614 96.5687 188.245 95.9007L179.365 74.2358ZM168.923 80.713C165.945 83.3526 163.469 86.4362 161.575 89.9436L182.177 101.069C182.723 100.057 183.455 99.1195 184.454 98.2346L168.923 80.713ZM161.535 90.0189C159.563 93.7348 158.407 97.8415 158.407 102.216H181.821C181.821 102.072 181.839 101.706 182.217 100.993L161.535 90.0189ZM158.407 102.216C158.407 110.855 162.776 117.723 169.635 122.11L182.25 102.385C181.908 102.166 181.736 102.009 181.671 101.944C181.611 101.885 181.638 101.899 181.693 101.994C181.75 102.092 181.793 102.2 181.815 102.288C181.836 102.37 181.821 102.359 181.821 102.216H158.407ZM169.65 122.119C174.559 125.249 180.157 127.411 186.245 127.411V103.997C185.826 103.997 184.556 103.855 182.236 102.376L169.65 122.119ZM186.245 127.411C192.299 127.411 197.829 125.316 202.391 121.418L187.18 103.619C186.899 103.858 186.74 103.922 186.695 103.939C186.652 103.955 186.531 103.997 186.245 103.997V127.411ZM202.483 121.339C206.508 117.825 209.444 113.457 211.378 108.521L189.579 99.978C188.892 101.729 188.032 102.874 187.087 103.698L202.483 121.339ZM211.398 108.472C213.176 103.873 214.151 99.1004 214.151 94.2183H190.737C190.737 95.9333 190.402 97.8485 189.559 100.027L211.398 108.472ZM214.151 94.2183C214.151 91.0252 213.768 87.8486 212.887 84.7665L190.374 91.1988C190.578 91.9124 190.737 92.8929 190.737 94.2183H214.151ZM208.002 36.7421L203.475 25.9459L197.736 28.3521L196.521 34.4552L208.002 36.7421ZM242.433 22.3053L254.116 21.5568L253.065 5.15311L237.907 11.509L242.433 22.3053ZM247.449 100.589L235.766 101.338L236.942 119.694L253.074 110.857L247.449 100.589ZM275.78 85.0682L277.514 73.4904L273.614 72.9063L270.156 74.8011L275.78 85.0682ZM305.196 89.4738L312.32 98.7639L334.207 81.9813L306.93 77.896L305.196 89.4738ZM266.834 118.89L259.71 109.6L247.494 118.967L259.784 128.236L266.834 118.89ZM302.96 146.137L314.646 145.437L314.323 140.044L310.009 136.79L302.96 146.137ZM304.586 173.316L297.753 182.822L317.743 197.191L316.272 172.616L304.586 173.316ZM251.312 135.021L258.145 125.515L238.383 111.309L239.621 135.616L251.312 135.021ZM253.007 168.3L253.228 180.005L265.313 179.776L264.699 167.705L253.007 168.3ZM220.744 168.91L209.053 169.516L209.639 180.829L220.966 180.615L220.744 168.91ZM214.644 51.179L226.335 50.5732L225.618 36.7173L212.08 39.7564L214.644 51.179ZM204.681 53.4157L193.199 51.1287L189.683 68.7807L207.245 64.8383L204.681 53.4157ZM212.529 47.5384L246.96 33.1016L237.907 11.509L203.475 25.9459L212.529 47.5384ZM230.75 23.0538L235.766 101.338L259.132 99.841L254.116 21.5568L230.75 23.0538ZM253.074 110.857L281.405 95.3353L270.156 74.8011L241.824 90.3224L253.074 110.857ZM274.046 96.646L303.462 101.052L306.93 77.896L277.514 73.4904L274.046 96.646ZM298.073 80.1837L259.71 109.6L273.957 128.18L312.32 98.7639L298.073 80.1837ZM259.784 128.236L295.91 155.483L310.009 136.79L273.883 109.543L259.784 128.236ZM291.274 146.836L292.9 174.015L316.272 172.616L314.646 145.437L291.274 146.836ZM311.419 163.81L258.145 125.515L244.479 144.527L297.753 182.822L311.419 163.81ZM239.621 135.616L241.315 168.895L264.699 167.705L263.004 134.426L239.621 135.616ZM252.786 156.595L220.523 157.205L220.966 180.615L253.228 180.005L252.786 156.595ZM232.435 168.304L226.335 50.5732L202.953 51.7847L209.053 169.516L232.435 168.304ZM212.08 39.7564L202.117 41.993L207.245 64.8383L217.208 62.6016L212.08 39.7564ZM216.162 55.7026L219.483 39.0291L196.521 34.4552L193.199 51.1287L216.162 55.7026ZM352.37 112.518L361.386 105.051L350.548 91.9648L342.181 106.754L352.37 112.518ZM368.705 132.242L379.771 136.062L381.918 129.843L377.721 124.775L368.705 132.242ZM359.351 142.68L353.025 132.829L353.005 132.843L352.984 132.856L359.351 142.68ZM341.864 150.136L338.848 138.824L338.803 138.836L338.759 138.848L341.864 150.136ZM305.671 150.542L301.904 161.627L301.92 161.632L301.937 161.638L305.671 150.542ZM294.894 143.358L304.086 136.108L304.072 136.09L304.057 136.072L294.894 143.358ZM291.979 102.216L281.024 98.0892L281.016 98.1098L281.009 98.1305L291.979 102.216ZM299.842 88.3894L291.8 79.8815L291.788 79.8934L291.775 79.9053L299.842 88.3894ZM310.551 80.5948L305.029 70.2719L305.004 70.2853L304.979 70.2989L310.551 80.5948ZM322.615 75.9181L319.776 64.5608L322.615 75.9181ZM351.76 77.1381L347.798 88.1542L347.856 88.175L347.914 88.1952L351.76 77.1381ZM365.384 85.0682L374.356 92.5883L381.634 83.9045L373.193 76.3464L365.384 85.0682ZM328.173 129.463L319.201 121.943L303.086 141.17H328.173V129.463ZM337.527 127.43L342.432 138.059L342.468 138.043L342.504 138.026L337.527 127.43ZM345.728 121.533L354.08 129.736L354.116 129.699L354.152 129.662L345.728 121.533ZM333.595 96.7261L342.702 104.083L351.771 92.857L338.916 86.298L333.595 96.7261ZM319.701 96.5228L315.064 85.7734L315.025 85.7902L314.986 85.8073L319.701 96.5228ZM314.889 100.047L324.142 107.219L324.316 106.994L324.479 106.761L314.889 100.047ZM311.161 116.517L299.724 119.019L311.161 116.517ZM312.787 122.482L301.585 125.883L308.005 147.03L321.894 129.839L312.787 122.482ZM298.757 47.8578L293.088 37.6151L282.179 43.6532L288.892 54.1607L298.757 47.8578ZM334.883 27.8632L344.696 21.4791L338.752 12.3417L329.214 17.6204L334.883 27.8632ZM350.405 51.7212L352.591 63.2221L369.733 59.9633L360.218 45.3371L350.405 51.7212ZM306.552 60.0579L296.686 66.3608L300.953 73.0389L308.738 71.5589L306.552 60.0579ZM343.354 119.986L359.688 139.709L377.721 124.775L361.386 105.051L343.354 119.986ZM357.639 128.422C357.501 128.819 356.717 130.458 353.025 132.829L365.677 152.53C371.836 148.575 377.287 143.256 379.771 136.062L357.639 128.422ZM352.984 132.856C349.323 135.229 344.675 137.27 338.848 138.824L344.881 161.447C352.61 159.386 359.619 156.457 365.719 152.504L352.984 132.856ZM338.759 138.848C333 140.433 327.311 141.208 321.666 141.208V164.621C329.487 164.621 337.264 163.544 344.97 161.423L338.759 138.848ZM321.666 141.208C316.722 141.208 312.685 140.551 309.405 139.447L301.937 161.638C308.055 163.697 314.682 164.621 321.666 164.621V141.208ZM309.437 139.458C306.484 138.454 304.954 137.208 304.086 136.108L285.702 150.608C289.895 155.923 295.549 159.467 301.904 161.627L309.437 139.458ZM304.057 136.072C301.658 133.054 300.026 128.747 300.026 122.211H276.613C276.613 132.845 279.364 142.636 285.73 150.643L304.057 136.072ZM300.026 122.211C300.026 116.872 300.981 111.588 302.95 106.302L281.009 98.1305C278.097 105.948 276.613 113.994 276.613 122.211H300.026ZM302.935 106.343C305.241 100.22 307.106 97.6365 307.909 96.8734L291.775 79.9053C287.065 84.3837 283.688 91.0178 281.024 98.0892L302.935 106.343ZM307.883 96.8972C310.469 94.4529 313.214 92.4647 316.123 90.8907L304.979 70.2989C300.206 72.8821 295.811 76.0902 291.8 79.8815L307.883 96.8972ZM316.072 90.9178C319.134 89.28 322.257 88.0749 325.455 87.2755L319.776 64.5608C314.659 65.8399 309.739 67.7526 305.029 70.2719L316.072 90.9178ZM325.455 87.2755C328.662 86.4736 331.978 86.0661 335.425 86.0661V62.6523C330.107 62.6523 324.883 63.2841 319.776 64.5608L325.455 87.2755ZM335.425 86.0661C339.879 86.0661 343.978 86.7805 347.798 88.1542L355.722 66.122C349.239 63.7905 342.449 62.6523 335.425 62.6523V86.0661ZM347.914 88.1952C351.729 89.5223 354.905 91.3996 357.575 93.79L373.193 76.3464C368.091 71.7783 362.183 68.3688 355.606 66.081L347.914 88.1952ZM356.411 77.5481L319.201 121.943L337.145 136.983L374.356 92.5883L356.411 77.5481ZM328.173 141.17C333.131 141.17 337.926 140.139 342.432 138.059L332.621 116.8C331.253 117.432 329.812 117.756 328.173 117.756V141.17ZM342.504 138.026C346.837 135.991 350.696 133.182 354.08 129.736L337.376 113.33C335.79 114.945 334.18 116.067 332.55 116.834L342.504 138.026ZM354.152 129.662C357.389 126.308 360.179 122.49 362.559 118.283L342.181 106.754C340.675 109.415 339.037 111.607 337.303 113.404L354.152 129.662ZM338.916 86.298C335.187 84.3954 331.115 83.3247 326.818 83.3247V106.739C327.129 106.739 327.576 106.798 328.275 107.154L338.916 86.298ZM326.818 83.3247C322.737 83.3247 318.79 84.1661 315.064 85.7734L324.338 107.272C325.221 106.891 326.018 106.739 326.818 106.739V83.3247ZM314.986 85.8073C311.664 87.2688 307.937 89.5634 305.298 93.3338L324.479 106.761C324.087 107.321 323.751 107.572 323.721 107.594C323.702 107.608 323.742 107.577 323.86 107.51C323.978 107.444 324.159 107.351 324.416 107.238L314.986 85.8073ZM305.635 92.8759C301.336 98.4235 298.979 104.895 298.979 111.976H322.393C322.393 110.382 322.838 108.901 324.142 107.219L305.635 92.8759ZM298.979 111.976C298.979 114.342 299.216 116.697 299.724 119.019L322.597 114.016C322.473 113.446 322.393 112.774 322.393 111.976H298.979ZM299.724 119.019C300.139 120.915 300.785 123.247 301.585 125.883L323.99 119.081C323.253 116.656 322.815 115.012 322.597 114.016L299.724 119.019ZM321.894 129.839L342.702 104.083L324.489 89.3691L303.681 115.125L321.894 129.839ZM304.426 58.1005L340.552 38.1059L329.214 17.6204L293.088 37.6151L304.426 58.1005ZM325.07 34.2472L340.591 58.1052L360.218 45.3371L344.696 21.4791L325.07 34.2472ZM348.218 40.2203L304.365 48.557L308.738 71.5589L352.591 63.2221L348.218 40.2203ZM316.417 53.7551L308.623 41.5549L288.892 54.1607L296.686 66.3608L316.417 53.7551ZM418.725 57.279L414.864 68.3308L414.889 68.3396L414.914 68.3483L418.725 57.279ZM400.9 58.3635L394.095 48.8372L388.857 52.5786L389.21 59.0057L400.9 58.3635ZM404.288 120.042L392.599 120.684L393.52 137.446L408.931 130.789L404.288 120.042ZM419.539 110.282L410.36 103.015L410.353 103.024L410.347 103.032L419.539 110.282ZM424.215 102.216L413.558 97.3718L413.129 98.3156L412.872 99.3201L424.215 102.216ZM425.571 94.8283L413.956 93.3598L413.948 93.4256L413.941 93.4915L425.571 94.8283ZM424.554 65.4802L413.197 68.3196L413.214 68.3868L413.231 68.4539L424.554 65.4802ZM445.362 45.0789L434.84 50.2098L434.865 50.2622L434.891 50.3144L445.362 45.0789ZM450.649 58.2957L439.457 61.7307L439.478 61.7973L439.499 61.8637L450.649 58.2957ZM453.767 71.8514L442.173 73.4745L442.181 73.5313L442.189 73.588L453.767 71.8514ZM451.598 107.842L440.366 104.542L440.356 104.575L440.347 104.607L451.598 107.842ZM442.583 127.294L452.217 133.946L452.229 133.928L452.241 133.91L442.583 127.294ZM428.282 141.189L421.992 131.315L421.974 131.327L421.955 131.339L428.282 141.189ZM409.778 147.763L408.384 136.14L408.057 136.179L407.733 136.237L409.778 147.763ZM381.515 152.779L369.877 154.046L371.232 166.494L383.56 164.306L381.515 152.779ZM372.026 65.6158L383.664 64.3488L382.527 53.9089H372.026V65.6158ZM365.384 72.8003L358.789 82.4729L361.772 84.5072H365.384V72.8003ZM362.74 67.0391L351.328 69.6477L351.345 69.7249L351.364 69.8019L362.74 67.0391ZM359.555 52.2634L348.081 54.5891L348.089 54.6263L348.096 54.6635L359.555 52.2634ZM356.505 40.0633L352.889 28.9286L340.276 33.0239L345.904 45.0321L356.505 40.0633ZM385.988 31.8621L388.563 43.2823L388.59 43.2763L388.617 43.2701L385.988 31.8621ZM422.587 46.2273C418.417 44.7705 413.962 43.6066 409.778 43.6066V67.0203C409.764 67.0203 409.87 67.0199 410.119 67.0512C410.364 67.0822 410.709 67.1392 411.164 67.239C412.086 67.4416 413.307 67.7868 414.864 68.3308L422.587 46.2273ZM409.778 43.6066C403.937 43.6066 398.641 45.5898 394.095 48.8372L407.704 67.8898C408.851 67.0705 409.475 67.0203 409.778 67.0203V43.6066ZM389.21 59.0057L392.599 120.684L415.978 119.4L412.589 57.7212L389.21 59.0057ZM408.931 130.789C416.864 127.362 424.286 123.166 428.73 117.532L410.347 103.032C409.73 103.814 406.986 106.124 399.646 109.295L408.931 130.789ZM428.717 117.548C431.563 113.954 434.39 109.687 435.558 105.112L412.872 99.3201C412.953 99.0046 412.957 99.1855 412.512 99.9531C412.09 100.68 411.406 101.694 410.36 103.015L428.717 117.548ZM434.873 107.061C435.748 105.135 436.173 103.016 436.408 101.736C436.7 100.145 436.96 98.2604 437.201 96.1651L413.941 93.4915C413.73 95.3274 413.538 96.6397 413.378 97.5109C413.299 97.9449 413.245 98.1684 413.228 98.2341C413.192 98.3716 413.277 97.99 413.558 97.3718L434.873 107.061ZM437.185 96.2968C437.756 91.7865 438.023 86.9026 438.023 81.6793H414.61C414.61 86.1257 414.38 90.0078 413.956 93.3598L437.185 96.2968ZM438.023 81.6793C438.023 74.6898 437.381 68.2321 435.877 62.5065L413.231 68.4539C414.077 71.6751 414.61 76.0168 414.61 81.6793H438.023ZM435.912 62.6409C434.416 56.6579 430.88 49.0823 422.536 46.2097L414.914 68.3483C414.342 68.1512 413.832 67.8637 413.419 67.5399C413.018 67.2256 412.795 66.9463 412.707 66.8231C412.626 66.7078 412.666 66.7361 412.775 66.9929C412.884 67.2492 413.036 67.6766 413.197 68.3196L435.912 62.6409ZM434.891 50.3144C436.724 53.9796 438.246 57.7828 439.457 61.7307L461.841 54.8607C460.251 49.6811 458.248 44.6731 455.833 39.8434L434.891 50.3144ZM439.499 61.8637C440.75 65.7729 441.636 69.6413 442.173 73.4745L465.361 70.2283C464.632 65.0243 463.44 59.8556 461.799 54.7277L439.499 61.8637ZM442.189 73.588C442.785 77.556 443.077 81.4261 443.077 85.2038H466.49C466.49 80.2155 466.104 75.184 465.344 70.1148L442.189 73.588ZM443.077 85.2038C443.077 91.9979 442.161 98.4299 440.366 104.542L462.83 111.141C465.282 102.794 466.49 94.1342 466.49 85.2038H443.077ZM440.347 104.607C438.586 110.73 436.092 116.055 432.925 120.678L452.241 133.91C456.937 127.056 460.452 119.413 462.849 111.076L440.347 104.607ZM432.95 120.642C429.869 125.104 426.222 128.62 421.992 131.315L434.572 151.062C441.548 146.618 447.435 140.871 452.217 133.946L432.95 120.642ZM421.955 131.339C417.937 133.92 413.465 135.53 408.384 136.14L411.173 159.387C419.647 158.37 427.511 155.597 434.609 151.039L421.955 131.339ZM407.733 136.237L379.469 141.252L383.56 164.306L411.824 159.29L407.733 136.237ZM393.153 151.512L383.664 64.3488L360.388 66.8828L369.877 154.046L393.153 151.512ZM372.026 53.9089C368.789 53.9089 366.507 55.2479 365.978 55.5557C365.105 56.0642 364.455 56.5868 364.104 56.8819C363.375 57.4952 362.764 58.1322 362.362 58.5666C361.503 59.4958 360.533 60.6702 359.529 61.9371L377.88 76.479C378.774 75.3511 379.306 74.7293 379.554 74.4611C379.706 74.2967 379.55 74.4848 379.177 74.7987C379.004 74.9441 378.507 75.3545 377.762 75.7881C377.378 76.0117 376.752 76.3456 375.928 76.6428C375.146 76.9249 373.779 77.3227 372.026 77.3227V53.9089ZM359.529 61.9371C358.636 63.065 358.103 63.6868 357.855 63.9549C357.703 64.1193 357.859 63.9313 358.233 63.6174C358.405 63.472 358.903 63.0616 359.647 62.628C360.031 62.4044 360.657 62.0705 361.481 61.7733C362.264 61.4912 363.631 61.0934 365.384 61.0934V84.5072C368.62 84.5072 370.903 83.1682 371.431 82.8604C372.304 82.3519 372.955 81.8293 373.306 81.5342C374.035 80.9209 374.646 80.2838 375.047 79.8495C375.906 78.9203 376.876 77.7459 377.88 76.479L359.529 61.9371ZM371.978 63.1277C373.156 63.9302 373.839 64.7742 374.152 65.2077C374.478 65.6597 374.614 65.9624 374.618 65.9696C374.629 65.9938 374.574 65.8759 374.473 65.5655C374.375 65.2628 374.253 64.8399 374.116 64.2763L351.364 69.8019C351.841 71.7666 352.464 73.8315 353.337 75.7337C354.081 77.356 355.654 80.3358 358.789 82.4729L371.978 63.1277ZM374.153 64.4305C373.455 61.3775 372.411 56.5396 371.013 49.8634L348.096 54.6635C349.499 61.3622 350.58 66.3747 351.328 69.6477L374.153 64.4305ZM371.028 49.9377C370.334 46.514 369.702 43.6338 369.133 41.3584C368.644 39.4013 367.988 36.9798 367.105 35.0945L345.904 45.0321C345.727 44.6538 345.729 44.5679 345.886 45.0787C346.017 45.5026 346.194 46.1405 346.418 47.0371C346.866 48.8285 347.419 51.3254 348.081 54.5891L371.028 49.9377ZM360.12 51.198C370.269 47.9029 379.747 45.2703 388.563 43.2823L383.413 20.4419C373.794 22.611 363.616 25.4458 352.889 28.9286L360.12 51.198ZM388.617 43.2701C397.13 41.3088 404.824 40.3834 411.744 40.3834V16.9696C402.759 16.9696 393.283 18.1679 383.36 20.4541L388.617 43.2701ZM411.744 40.3834C426.431 40.3834 432.241 44.8815 434.84 50.2098L455.885 39.948C447.819 23.4064 431.217 16.9696 411.744 16.9696V40.3834ZM512.056 112.518L521.073 105.051L510.234 91.9648L501.867 106.754L512.056 112.518ZM528.391 132.242L539.457 136.062L541.604 129.843L537.407 124.775L528.391 132.242ZM519.037 142.68L512.711 132.829L512.691 132.843L512.67 132.856L519.037 142.68ZM501.551 150.136L498.534 138.824L498.489 138.836L498.445 138.848L501.551 150.136ZM465.357 150.542L461.59 161.627L461.607 161.632L461.623 161.638L465.357 150.542ZM454.58 143.358L463.772 136.108L463.758 136.09L463.744 136.072L454.58 143.358ZM451.666 102.216L440.71 98.0892L440.702 98.1098L440.695 98.1305L451.666 102.216ZM459.528 88.3894L451.486 79.8815L451.474 79.8934L451.461 79.9053L459.528 88.3894ZM470.237 80.5948L464.715 70.2719L464.69 70.2853L464.665 70.2989L470.237 80.5948ZM482.301 75.9181L479.462 64.5608L482.301 75.9181ZM511.446 77.1381L507.484 88.1542L507.542 88.175L507.6 88.1952L511.446 77.1381ZM525.07 85.0682L534.042 92.5883L541.32 83.9045L532.879 76.3464L525.07 85.0682ZM487.859 129.463L478.887 121.943L462.772 141.17H487.859V129.463ZM497.213 127.43L502.119 138.059L502.154 138.043L502.19 138.026L497.213 127.43ZM505.414 121.533L513.766 129.736L513.802 129.699L513.838 129.662L505.414 121.533ZM493.282 96.7261L502.388 104.083L511.457 92.857L498.602 86.298L493.282 96.7261ZM479.387 96.5228L474.75 85.7734L474.711 85.7902L474.672 85.8073L479.387 96.5228ZM474.575 100.047L483.828 107.219L484.002 106.994L484.165 106.761L474.575 100.047ZM470.847 116.517L459.41 119.019L470.847 116.517ZM472.474 122.482L461.271 125.883L467.691 147.03L481.58 129.839L472.474 122.482ZM503.04 119.986L519.375 139.709L537.407 124.775L521.073 105.051L503.04 119.986ZM517.325 128.422C517.188 128.819 516.403 130.458 512.711 132.829L525.363 152.53C531.522 148.575 536.973 143.256 539.457 136.062L517.325 128.422ZM512.67 132.856C509.009 135.229 504.361 137.27 498.534 138.824L504.567 161.447C512.296 159.386 519.305 156.457 525.405 152.504L512.67 132.856ZM498.445 138.848C492.686 140.433 486.997 141.208 481.353 141.208V164.621C489.173 164.621 496.95 163.544 504.656 161.423L498.445 138.848ZM481.353 141.208C476.408 141.208 472.371 140.551 469.091 139.447L461.623 161.638C467.741 163.697 474.368 164.621 481.353 164.621V141.208ZM469.123 139.458C466.171 138.454 464.64 137.208 463.772 136.108L445.388 150.608C449.581 155.923 455.235 159.467 461.59 161.627L469.123 139.458ZM463.744 136.072C461.344 133.054 459.712 128.747 459.712 122.211H436.299C436.299 132.845 439.05 142.636 445.417 150.643L463.744 136.072ZM459.712 122.211C459.712 116.872 460.668 111.588 462.636 106.302L440.695 98.1305C437.784 105.948 436.299 113.994 436.299 122.211H459.712ZM462.621 106.343C464.927 100.22 466.792 97.6365 467.595 96.8734L451.461 79.9053C446.751 84.3837 443.374 91.0178 440.71 98.0892L462.621 106.343ZM467.57 96.8972C470.156 94.4529 472.9 92.4647 475.809 90.8907L464.665 70.2989C459.892 72.8821 455.497 76.0902 451.486 79.8815L467.57 96.8972ZM475.758 90.9178C478.82 89.28 481.943 88.0749 485.141 87.2755L479.462 64.5608C474.346 65.8399 469.425 67.7526 464.715 70.2719L475.758 90.9178ZM485.141 87.2755C488.348 86.4736 491.664 86.0661 495.112 86.0661V62.6523C489.793 62.6523 484.569 63.2841 479.462 64.5608L485.141 87.2755ZM495.112 86.0661C499.565 86.0661 503.665 86.7805 507.484 88.1542L515.408 66.122C508.925 63.7905 502.135 62.6523 495.112 62.6523V86.0661ZM507.6 88.1952C511.416 89.5223 514.591 91.3996 517.261 93.79L532.879 76.3464C527.777 71.7783 521.87 68.3688 515.292 66.081L507.6 88.1952ZM516.098 77.5481L478.887 121.943L496.831 136.983L534.042 92.5883L516.098 77.5481ZM487.859 141.17C492.817 141.17 497.613 140.139 502.119 138.059L492.307 116.8C490.939 117.432 489.498 117.756 487.859 117.756V141.17ZM502.19 138.026C506.523 135.991 510.382 133.182 513.766 129.736L497.062 113.33C495.476 114.945 493.867 116.067 492.236 116.834L502.19 138.026ZM513.838 129.662C517.075 126.308 519.865 122.49 522.245 118.283L501.867 106.754C500.361 109.415 498.723 111.607 496.989 113.404L513.838 129.662ZM498.602 86.298C494.873 84.3954 490.801 83.3247 486.504 83.3247V106.739C486.815 106.739 487.262 106.798 487.961 107.154L498.602 86.298ZM486.504 83.3247C482.423 83.3247 478.476 84.1661 474.75 85.7734L484.024 107.272C484.907 106.891 485.704 106.739 486.504 106.739V83.3247ZM474.672 85.8073C471.35 87.2688 467.623 89.5634 464.984 93.3338L484.165 106.761C483.773 107.321 483.437 107.572 483.407 107.594C483.388 107.608 483.428 107.577 483.546 107.51C483.664 107.444 483.845 107.351 484.102 107.238L474.672 85.8073ZM465.321 92.8759C461.022 98.4235 458.666 104.895 458.666 111.976H482.079C482.079 110.382 482.524 108.901 483.828 107.219L465.321 92.8759ZM458.666 111.976C458.666 114.342 458.903 116.697 459.41 119.019L482.283 114.016C482.159 113.446 482.079 112.774 482.079 111.976H458.666ZM459.41 119.019C459.825 120.915 460.471 123.247 461.271 125.883L483.676 119.081C482.939 116.656 482.501 115.012 482.283 114.016L459.41 119.019ZM481.58 129.839L502.388 104.083L484.175 89.3691L463.367 115.125L481.58 129.839ZM567.567 137.122L576.843 129.98L567.586 117.958L558.305 129.961L567.567 137.122ZM551.164 158.337L551.527 170.038L557.048 169.867L560.426 165.497L551.164 158.337ZM516.191 159.421L506.854 152.359L492.087 171.881L516.554 171.122L516.191 159.421ZM550.08 114.62L559.417 121.682L564.817 114.543L559.343 107.46L550.08 114.62ZM511.785 65.0736L512.297 53.3779L487.096 52.2742L502.522 72.2328L511.785 65.0736ZM548.928 66.7002L558.259 59.6309L554.937 55.2453L549.44 55.0045L548.928 66.7002ZM567.567 91.3038L558.235 98.3731L567.584 110.713L576.911 98.3568L567.567 91.3038ZM586.138 66.7002L585.627 55.0045L580.117 55.2454L576.794 59.6473L586.138 66.7002ZM623.348 65.0736L632.611 72.2328L648.036 52.2762L622.837 53.3778L623.348 65.0736ZM585.054 114.62L575.791 107.46L570.317 114.543L575.717 121.682L585.054 114.62ZM618.943 159.421L618.581 171.123L643.046 171.88L628.28 152.359L618.943 159.421ZM583.901 158.337L574.626 165.479L578.004 169.867L583.539 170.038L583.901 158.337ZM558.305 129.961L541.903 151.176L560.426 165.497L576.828 144.283L558.305 129.961ZM550.802 146.635L515.828 147.72L516.554 171.122L551.527 170.038L550.802 146.635ZM525.527 166.484L559.417 121.682L540.743 107.557L506.854 152.359L525.527 166.484ZM559.343 107.46L521.048 57.9143L502.522 72.2328L540.817 121.779L559.343 107.46ZM511.273 76.7692L548.415 78.3959L549.44 55.0045L512.297 53.3779L511.273 76.7692ZM539.596 73.7695L558.235 98.3731L576.898 84.2345L558.259 59.6309L539.596 73.7695ZM576.911 98.3568L595.482 73.7532L576.794 59.6473L558.223 84.2509L576.911 98.3568ZM586.649 78.396L623.86 76.7693L622.837 53.3778L585.627 55.0045L586.649 78.396ZM614.086 57.9143L575.791 107.46L594.316 121.779L632.611 72.2328L614.086 57.9143ZM575.717 121.682L609.606 166.484L628.28 152.359L594.39 107.557L575.717 121.682ZM619.305 147.72L584.264 146.635L583.539 170.038L618.581 171.123L619.305 147.72ZM593.177 151.195L576.843 129.98L558.291 144.264L574.626 165.479L593.177 151.195Z" fill="#3E619A" mask="url(#path-1-outside-1_825_438)"/>
</svg>
