<svg width="330" height="330" viewBox="0 0 330 330" fill="none" xmlns="http://www.w3.org/2000/svg">
<circle cx="165" cy="165" r="160" fill="white" stroke="black" stroke-width="10"/>
<path d="M320 165C320 144.645 315.991 124.49 308.201 105.684C300.412 86.8786 288.995 69.7915 274.602 55.3984C260.208 41.0054 243.121 29.5882 224.316 21.7987C205.51 14.0092 185.355 10 165 10C144.645 10 124.49 14.0092 105.684 21.7987C86.8786 29.5882 69.7915 41.0054 55.3984 55.3985C41.0054 69.7915 29.5881 86.8786 21.7987 105.684C14.0092 124.49 10 144.645 10 165L165 165H320Z" fill="#EF4444"/>
<rect x="7" y="159" width="317" height="32" fill="black"/>
<circle cx="165" cy="175" r="41.5" fill="white" stroke="black" stroke-width="7"/>
<ellipse cx="72.5959" cy="68.3147" rx="14.4516" ry="32.9636" transform="rotate(44.9169 72.5959 68.3147)" fill="white"/>
<circle cx="165" cy="175" r="26.5" stroke="black" stroke-width="3"/>
</svg>
