<svg width="216" height="173" viewBox="0 0 216 173" fill="none" xmlns="http://www.w3.org/2000/svg">
<mask id="path-1-outside-1_844_440" maskUnits="userSpaceOnUse" x="10" y="10" width="201" height="131" fill="black">
<rect fill="white" x="10" y="10" width="201" height="131"/>
<path d="M31.7928 38.1445L22.5545 35.9424L22.0711 22.2998L54.6736 24.502L74.8689 88.3105L89.4246 28.4766L120.631 30.249L88.0818 129.668L63.9119 129.238L31.7928 38.1445ZM122.869 36.8555C126.88 28.3333 135.241 24.0723 147.952 24.0723C154.648 24.0723 161.702 25.0212 169.114 26.9189C176.527 28.7809 185.317 31.359 195.487 34.6533C194.699 36.4437 193.016 40.9196 190.438 48.0811C187.86 55.2425 186.463 58.8232 186.248 58.8232C185.962 58.5368 184.315 57.6058 181.307 56.0303C178.335 54.4189 175.076 52.8613 171.531 51.3574C168.022 49.8535 165.158 48.9762 162.938 48.7256C161.935 48.6182 159.59 48.0632 155.902 47.0605C152.249 46.0579 149.528 45.5566 147.737 45.5566C146.09 45.5566 144.837 45.8789 143.978 46.5234C142.51 47.5618 141.776 48.7793 141.776 50.1758C141.776 51.4648 142.384 52.8792 143.602 54.4189C144.819 55.9229 146.413 57.4268 148.382 58.9307C150.351 60.4346 152.536 61.9027 154.935 63.335C157.334 64.7673 159.697 66.0563 162.025 67.2021C166.823 69.5654 170.976 72.2689 174.486 75.3125C178.03 78.3203 180.788 81.3281 182.757 84.3359C184.726 87.3438 186.159 90.4053 187.054 93.5205C187.985 96.5999 188.45 99.5182 188.45 102.275C188.45 105.534 187.86 108.506 186.678 111.191C184.494 115.811 181.289 119.159 177.064 121.235C172.838 123.348 167.79 124.404 161.917 124.404C158.551 124.404 154.756 124.046 150.53 123.33C146.341 122.65 142.277 121.772 138.338 120.698C134.435 119.66 130.299 118.46 125.931 117.1C121.598 115.703 117.785 114.468 114.49 113.394C115.028 112.284 115.905 110.099 117.122 106.841C118.304 103.547 119.324 100.7 120.184 98.3008C121.007 95.9017 121.777 93.7891 122.493 91.9629C123.174 90.1367 123.585 89.2236 123.729 89.2236C124.731 90.0472 128.097 91.8555 133.826 94.6484C139.556 97.4056 143.978 98.9632 147.093 99.3213C148.239 99.4287 150.19 99.8584 152.947 100.61C155.705 101.362 157.585 101.864 158.587 102.114C159.626 102.365 160.843 102.49 162.239 102.49C163.887 102.49 165.14 102.168 165.999 101.523C167.611 100.342 168.416 99.0885 168.416 97.7637C168.416 94.8275 164.674 91.39 157.191 87.4512C152.607 85.0521 147.505 81.7041 141.883 77.4072C136.297 73.0745 131.391 68.0794 127.166 62.4219C122.977 56.7285 120.882 51.0531 120.882 45.3955C120.882 42.4951 121.544 39.6484 122.869 36.8555Z"/>
</mask>
<path d="M31.7928 38.1445L22.5545 35.9424L22.0711 22.2998L54.6736 24.502L74.8689 88.3105L89.4246 28.4766L120.631 30.249L88.0818 129.668L63.9119 129.238L31.7928 38.1445ZM122.869 36.8555C126.88 28.3333 135.241 24.0723 147.952 24.0723C154.648 24.0723 161.702 25.0212 169.114 26.9189C176.527 28.7809 185.317 31.359 195.487 34.6533C194.699 36.4437 193.016 40.9196 190.438 48.0811C187.86 55.2425 186.463 58.8232 186.248 58.8232C185.962 58.5368 184.315 57.6058 181.307 56.0303C178.335 54.4189 175.076 52.8613 171.531 51.3574C168.022 49.8535 165.158 48.9762 162.938 48.7256C161.935 48.6182 159.59 48.0632 155.902 47.0605C152.249 46.0579 149.528 45.5566 147.737 45.5566C146.09 45.5566 144.837 45.8789 143.978 46.5234C142.51 47.5618 141.776 48.7793 141.776 50.1758C141.776 51.4648 142.384 52.8792 143.602 54.4189C144.819 55.9229 146.413 57.4268 148.382 58.9307C150.351 60.4346 152.536 61.9027 154.935 63.335C157.334 64.7673 159.697 66.0563 162.025 67.2021C166.823 69.5654 170.976 72.2689 174.486 75.3125C178.03 78.3203 180.788 81.3281 182.757 84.3359C184.726 87.3438 186.159 90.4053 187.054 93.5205C187.985 96.5999 188.45 99.5182 188.45 102.275C188.45 105.534 187.86 108.506 186.678 111.191C184.494 115.811 181.289 119.159 177.064 121.235C172.838 123.348 167.79 124.404 161.917 124.404C158.551 124.404 154.756 124.046 150.53 123.33C146.341 122.65 142.277 121.772 138.338 120.698C134.435 119.66 130.299 118.46 125.931 117.1C121.598 115.703 117.785 114.468 114.49 113.394C115.028 112.284 115.905 110.099 117.122 106.841C118.304 103.547 119.324 100.7 120.184 98.3008C121.007 95.9017 121.777 93.7891 122.493 91.9629C123.174 90.1367 123.585 89.2236 123.729 89.2236C124.731 90.0472 128.097 91.8555 133.826 94.6484C139.556 97.4056 143.978 98.9632 147.093 99.3213C148.239 99.4287 150.19 99.8584 152.947 100.61C155.705 101.362 157.585 101.864 158.587 102.114C159.626 102.365 160.843 102.49 162.239 102.49C163.887 102.49 165.14 102.168 165.999 101.523C167.611 100.342 168.416 99.0885 168.416 97.7637C168.416 94.8275 164.674 91.39 157.191 87.4512C152.607 85.0521 147.505 81.7041 141.883 77.4072C136.297 73.0745 131.391 68.0794 127.166 62.4219C122.977 56.7285 120.882 51.0531 120.882 45.3955C120.882 42.4951 121.544 39.6484 122.869 36.8555Z" fill="#EFBD0B"/>
<path d="M31.7928 38.1445L42.1668 34.4867L40.1737 28.8341L34.3434 27.4443L31.7928 38.1445ZM22.5545 35.9424L11.5614 36.3319L11.8579 44.7008L20.0039 46.6426L22.5545 35.9424ZM22.0711 22.2998L22.8124 11.3248L10.6462 10.503L11.078 22.6893L22.0711 22.2998ZM54.6736 24.502L65.1609 21.1827L62.8978 14.0324L55.4149 13.527L54.6736 24.502ZM74.8689 88.3105L64.3817 91.6298L76.2557 129.147L85.5572 90.9107L74.8689 88.3105ZM89.4246 28.4766L90.0484 17.4943L80.9018 16.9748L78.7363 25.8765L89.4246 28.4766ZM120.631 30.249L131.085 33.6716L135.535 20.0778L121.254 19.2667L120.631 30.249ZM88.0818 129.668L87.8863 140.666L96.0083 140.811L98.5358 133.091L88.0818 129.668ZM63.9119 129.238L53.5379 132.896L56.0782 140.101L63.7164 140.237L63.9119 129.238ZM34.3434 27.4443L25.1051 25.2422L20.0039 46.6426L29.2421 48.8447L34.3434 27.4443ZM33.5476 35.5529L33.0642 21.9103L11.078 22.6893L11.5614 36.3319L33.5476 35.5529ZM21.3298 33.2748L53.9323 35.4769L55.4149 13.527L22.8124 11.3248L21.3298 33.2748ZM44.1864 27.8212L64.3817 91.6298L85.3562 84.9913L65.1609 21.1827L44.1864 27.8212ZM85.5572 90.9107L100.113 31.0767L78.7363 25.8765L64.1807 85.7104L85.5572 90.9107ZM88.8008 39.4589L120.007 41.2313L121.254 19.2667L90.0484 17.4943L88.8008 39.4589ZM110.177 26.8265L77.6278 126.245L98.5358 133.091L131.085 33.6716L110.177 26.8265ZM88.2774 118.67L64.1074 118.24L63.7164 140.237L87.8863 140.666L88.2774 118.67ZM74.2859 125.58L42.1668 34.4867L21.4187 41.8024L53.5379 132.896L74.2859 125.58ZM122.869 36.8555L132.808 41.5699L132.815 41.5546L132.822 41.5392L122.869 36.8555ZM169.114 26.9189L166.386 37.5752L166.41 37.5814L166.434 37.5875L169.114 26.9189ZM195.487 34.6533L205.555 39.0834L210.458 27.9404L198.876 24.1887L195.487 34.6533ZM186.248 58.8232L178.47 66.6014L181.692 69.8232H186.248V58.8232ZM181.307 56.0303L176.064 65.7005L176.133 65.7379L176.203 65.7744L181.307 56.0303ZM171.531 51.3574L167.198 61.468L167.217 61.476L167.235 61.4838L171.531 51.3574ZM162.938 48.7256L164.172 37.795L164.141 37.7915L164.11 37.7882L162.938 48.7256ZM155.902 47.0605L152.99 57.6681L153.003 57.6717L153.016 57.6753L155.902 47.0605ZM143.978 46.5234L150.33 55.504L150.455 55.4155L150.578 55.3234L143.978 46.5234ZM143.602 54.4189L134.973 61.2415L135.012 61.2911L135.052 61.3401L143.602 54.4189ZM154.935 63.335L160.573 53.8901L154.935 63.335ZM162.025 67.2021L166.885 57.3342L166.883 57.3333L162.025 67.2021ZM174.486 75.3125L167.278 83.6223L167.323 83.6614L167.369 83.7001L174.486 75.3125ZM187.054 93.5205L176.482 96.5585L176.503 96.6313L176.525 96.7038L187.054 93.5205ZM186.678 111.191L196.622 115.894L196.686 115.758L196.746 115.622L186.678 111.191ZM177.064 121.235L172.211 111.363L172.178 111.38L172.144 111.397L177.064 121.235ZM150.53 123.33L152.369 112.485L152.331 112.478L152.294 112.472L150.53 123.33ZM138.338 120.698L141.232 110.086L141.199 110.077L141.166 110.068L138.338 120.698ZM125.931 117.1L122.556 127.569L122.608 127.586L122.66 127.602L125.931 117.1ZM114.49 113.394L104.589 108.602L99.1003 119.945L111.08 123.852L114.49 113.394ZM117.122 106.841L127.427 110.691L127.452 110.623L127.476 110.555L117.122 106.841ZM120.184 98.3008L130.539 102.01L130.564 101.941L130.588 101.872L120.184 98.3008ZM122.493 91.9629L132.734 95.9789L132.768 95.8913L132.801 95.8031L122.493 91.9629ZM123.729 89.2236L130.711 80.7236L127.667 78.2236H123.729V89.2236ZM133.826 94.6484L129.006 104.536L129.031 104.548L129.056 104.56L133.826 94.6484ZM147.093 99.3213L145.837 110.249L145.951 110.263L146.066 110.273L147.093 99.3213ZM152.947 100.61L150.053 111.223L152.947 100.61ZM158.587 102.114L155.919 112.786L155.963 112.797L156.006 112.807L158.587 102.114ZM165.999 101.523L159.494 92.653L159.447 92.688L159.399 92.7234L165.999 101.523ZM157.191 87.4512L162.314 77.7171L162.303 77.7113L162.292 77.7055L157.191 87.4512ZM141.883 77.4072L135.141 86.0991L135.172 86.123L135.203 86.1467L141.883 77.4072ZM127.166 62.4219L118.306 68.9414L118.33 68.9728L118.353 69.004L127.166 62.4219ZM132.822 41.5392C134.375 38.2404 137.747 35.0723 147.952 35.0723V13.0723C132.734 13.0723 119.385 18.4262 112.916 32.1717L132.822 41.5392ZM147.952 35.0723C153.608 35.0723 159.741 35.8739 166.386 37.5752L171.843 16.2627C163.663 14.1684 155.688 13.0723 147.952 13.0723V35.0723ZM166.434 37.5875C173.535 39.3711 182.077 41.8722 192.097 45.1179L198.876 24.1887C188.557 20.8459 179.518 18.1907 171.794 16.2504L166.434 37.5875ZM185.418 30.2232C184.444 32.4379 182.62 37.3204 180.088 44.3551L200.787 51.807C203.411 44.5188 204.954 40.4495 205.555 39.0834L185.418 30.2232ZM180.088 44.3551C178.807 47.9147 177.852 50.4898 177.209 52.1409C176.876 52.993 176.683 53.4534 176.6 53.6378C176.539 53.773 176.627 53.5595 176.828 53.2082C176.9 53.0819 177.218 52.52 177.755 51.8576C178.008 51.5446 178.604 50.8387 179.533 50.119C180.016 49.7444 180.773 49.2213 181.792 48.7687C182.812 48.3151 184.343 47.8232 186.248 47.8232V69.8232C189.888 69.8232 192.297 68.0603 193.011 67.5065C193.958 66.7728 194.574 66.046 194.85 65.7049C195.432 64.9866 195.805 64.3408 195.941 64.1026C196.269 63.5275 196.521 62.9783 196.662 62.6659C196.982 61.9551 197.339 61.0728 197.705 60.1345C198.457 58.2049 199.491 55.4089 200.787 51.807L180.088 44.3551ZM194.026 51.0451C192.95 49.9689 191.75 49.2485 191.639 49.179C191.186 48.8939 190.69 48.6048 190.211 48.334C189.235 47.7827 187.951 47.0929 186.411 46.2861L176.203 65.7744C177.67 66.5431 178.714 67.1066 179.385 67.4863C179.548 67.578 179.674 67.6509 179.769 67.707C179.816 67.7347 179.852 67.7562 179.878 67.772C179.891 67.7799 179.901 67.7858 179.907 67.79C179.914 67.7942 179.917 67.7962 179.917 67.7961C179.917 67.7961 179.913 67.7933 179.905 67.7881C179.897 67.7828 179.883 67.7743 179.866 67.7625C179.833 67.7409 179.769 67.6981 179.683 67.6367C179.602 67.5786 179.462 67.476 179.286 67.3351C179.129 67.2085 178.826 66.9576 178.47 66.6014L194.026 51.0451ZM186.55 46.3601C183.231 44.5606 179.652 42.8534 175.827 41.231L167.235 61.4838C170.501 62.8692 173.439 64.2772 176.064 65.7005L186.55 46.3601ZM175.865 41.2468C171.961 39.5741 167.952 38.2219 164.172 37.795L161.704 59.6561C162.363 59.7306 164.083 60.133 167.198 61.468L175.865 41.2468ZM164.11 37.7882C164.327 37.8115 164.354 37.8267 164.069 37.7703C163.825 37.7221 163.463 37.6435 162.96 37.5244C161.952 37.286 160.573 36.9313 158.787 36.4458L153.016 57.6753C156.418 58.6001 159.705 59.4421 161.766 59.663L164.11 37.7882ZM158.813 36.453C155.023 35.4125 151.097 34.5566 147.737 34.5566V56.5566C147.707 56.5566 148.111 56.5632 149.128 56.7506C150.091 56.9279 151.365 57.2221 152.99 57.6681L158.813 36.453ZM147.737 34.5566C144.906 34.5566 140.916 35.0698 137.378 37.7234L150.578 55.3234C149.644 56.0235 148.792 56.3257 148.302 56.4518C147.829 56.5733 147.6 56.5566 147.737 56.5566V34.5566ZM137.626 37.5429C134.173 39.9848 130.776 44.2037 130.776 50.1758H152.776C152.776 51.5169 152.393 52.8221 151.746 53.8951C151.151 54.8823 150.518 55.3706 150.33 55.504L137.626 37.5429ZM130.776 50.1758C130.776 54.9411 132.983 58.7249 134.973 61.2415L152.23 47.5964C152.065 47.3867 152.172 47.4726 152.336 47.8548C152.51 48.2589 152.776 49.0636 152.776 50.1758H130.776ZM135.052 61.3401C136.948 63.682 139.225 65.7788 141.706 67.6731L155.058 50.1882C153.6 49.0747 152.691 48.1637 152.151 47.4978L135.052 61.3401ZM141.706 67.6731C144.046 69.4602 146.583 71.1598 149.296 72.7798L160.573 53.8901C158.489 52.6455 156.657 51.4089 155.058 50.1882L141.706 67.6731ZM149.296 72.7798C151.93 74.3524 154.554 75.7849 157.166 77.071L166.883 57.3333C164.841 56.3278 162.738 55.1821 160.573 53.8901L149.296 72.7798ZM157.164 77.0701C161.241 79.0782 164.579 81.2815 167.278 83.6223L181.693 67.0027C177.374 63.2563 172.404 60.0526 166.885 57.3342L157.164 77.0701ZM167.369 83.7001C170.331 86.2135 172.304 88.4518 173.554 90.3616L191.96 78.3103C189.271 74.2044 185.73 70.4271 181.602 66.9249L167.369 83.7001ZM173.554 90.3616C174.985 92.5473 175.922 94.6107 176.482 96.5585L197.626 90.4825C196.395 86.1998 194.468 82.1402 191.96 78.3103L173.554 90.3616ZM176.525 96.7038C177.194 98.9187 177.45 100.759 177.45 102.275H199.45C199.45 98.2775 198.776 94.2812 197.583 90.3372L176.525 96.7038ZM177.45 102.275C177.45 104.178 177.112 105.619 176.609 106.761L196.746 115.622C198.607 111.393 199.45 106.89 199.45 102.275H177.45ZM176.734 106.489C175.516 109.063 174.008 110.48 172.211 111.363L181.916 131.107C188.57 127.837 193.471 122.558 196.622 115.894L176.734 106.489ZM172.144 111.397C169.773 112.583 166.488 113.404 161.917 113.404V135.404C169.091 135.404 175.904 134.113 181.983 131.074L172.144 111.397ZM161.917 113.404C159.307 113.404 156.142 113.124 152.369 112.485L148.692 134.175C153.369 134.968 157.795 135.404 161.917 135.404V113.404ZM152.294 112.472C148.47 111.851 144.784 111.055 141.232 110.086L135.444 131.311C139.769 132.49 144.212 133.448 148.767 134.188L152.294 112.472ZM141.166 110.068C137.43 109.074 133.443 107.918 129.202 106.597L122.66 127.602C127.156 129.002 131.44 130.246 135.51 131.328L141.166 110.068ZM129.305 106.63C124.981 105.236 121.18 104.005 117.901 102.936L111.08 123.852C114.389 124.931 118.215 126.17 122.556 127.569L129.305 106.63ZM124.392 118.185C125.186 116.544 126.231 113.891 127.427 110.691L106.818 102.991C105.579 106.307 104.869 108.023 104.589 108.602L124.392 118.185ZM127.476 110.555C128.658 107.26 129.679 104.411 130.539 102.01L109.828 94.5913C108.969 96.9885 107.949 99.8336 106.768 103.127L127.476 110.555ZM130.588 101.872C131.374 99.5819 132.089 97.6229 132.734 95.9789L112.253 87.9469C111.465 89.9552 110.641 92.2215 109.78 94.7292L130.588 101.872ZM132.801 95.8031C133.12 94.9486 133.29 94.5421 133.34 94.4306C133.388 94.324 133.255 94.64 132.971 95.1084C132.856 95.2975 132.447 95.966 131.751 96.7209C131.403 97.0988 130.708 97.8024 129.665 98.4759C128.684 99.1088 126.61 100.224 123.729 100.224V78.2236C120.829 78.2236 118.735 79.3456 117.733 79.9928C116.667 80.6805 115.948 81.4055 115.573 81.8119C114.825 82.6239 114.355 83.3781 114.171 83.6813C113.748 84.378 113.443 85.0364 113.285 85.3863C112.923 86.1878 112.547 87.151 112.185 88.1227L132.801 95.8031ZM116.747 97.7236C118.213 98.9278 120.265 100.063 121.799 100.888C123.665 101.89 126.085 103.112 129.006 104.536L138.647 84.7608C135.839 83.3919 133.711 82.3132 132.211 81.5074C131.459 81.1032 130.936 80.8061 130.6 80.6038C130.164 80.3409 130.324 80.4056 130.711 80.7236L116.747 97.7236ZM129.056 104.56C134.996 107.419 140.801 109.67 145.837 110.249L148.349 88.3932C147.155 88.256 144.115 87.3923 138.596 84.7365L129.056 104.56ZM146.066 110.273C145.979 110.265 146.246 110.29 147.051 110.467C147.792 110.63 148.782 110.876 150.053 111.223L155.842 89.9979C153.108 89.2523 150.322 88.5758 148.12 88.3693L146.066 110.273ZM150.053 111.223C152.798 111.971 154.787 112.503 155.919 112.786L161.255 91.4427C160.382 91.2245 158.611 90.7531 155.842 89.9979L150.053 111.223ZM156.006 112.807C158.102 113.313 160.223 113.49 162.239 113.49V91.4902C161.463 91.4902 161.149 91.4167 161.168 91.4214L156.006 112.807ZM162.239 113.49C165.071 113.49 169.061 112.977 172.599 110.323L159.399 92.7234C160.333 92.0234 161.185 91.7212 161.675 91.5951C162.148 91.4736 162.377 91.4902 162.239 91.4902V113.49ZM172.504 110.394C175.45 108.234 179.416 104.102 179.416 97.7637H157.416C157.416 96.0614 157.968 94.6687 158.559 93.7489C159.087 92.9271 159.561 92.6039 159.494 92.653L172.504 110.394ZM179.416 97.7637C179.416 91.5959 175.63 87.2512 173.052 84.8828C170.173 82.238 166.419 79.8776 162.314 77.7171L152.067 97.1853C155.446 98.9635 157.305 100.291 158.168 101.084C158.578 101.461 158.476 101.458 158.229 101.037C157.958 100.576 157.416 99.4334 157.416 97.7637H179.416ZM162.292 77.7055C158.422 75.6799 153.855 72.7127 148.563 68.6677L135.203 86.1467C141.154 90.6955 146.793 94.4243 152.089 97.1968L162.292 77.7055ZM148.625 68.7154C143.82 64.9888 139.612 60.7031 135.98 55.8397L118.353 69.004C123.171 75.4558 128.774 81.1603 135.141 86.0991L148.625 68.7154ZM136.026 55.9024C132.876 51.6211 131.882 48.1769 131.882 45.3955H109.882C109.882 53.9292 113.078 61.836 118.306 68.9414L136.026 55.9024ZM131.882 45.3955C131.882 44.232 132.135 42.9885 132.808 41.5699L112.931 32.141C110.954 36.3084 109.882 40.7583 109.882 45.3955H131.882Z" fill="#3E619A" mask="url(#path-1-outside-1_844_440)"/>
</svg>
